<?xml version="1.0" encoding="utf-8" standalone="no"?>
<!DOCTYPE svg PUBLIC "-//W3C//DTD SVG 1.1//EN"
  "http://www.w3.org/Graphics/SVG/1.1/DTD/svg11.dtd">
<svg xmlns:xlink="http://www.w3.org/1999/xlink" width="787.11299pt" height="496.970625pt" viewBox="0 0 787.11299 496.970625" xmlns="http://www.w3.org/2000/svg" version="1.1">
 <metadata>
  <rdf:RDF xmlns:dc="http://purl.org/dc/elements/1.1/" xmlns:cc="http://creativecommons.org/ns#" xmlns:rdf="http://www.w3.org/1999/02/22-rdf-syntax-ns#">
   <cc:Work>
    <dc:type rdf:resource="http://purl.org/dc/dcmitype/StillImage"/>
    <dc:date>2026-05-30T00:34:21.832251</dc:date>
    <dc:format>image/svg+xml</dc:format>
    <dc:creator>
     <cc:Agent>
      <dc:title>Matplotlib v3.10.9, https://matplotlib.org/</dc:title>
     </cc:Agent>
    </dc:creator>
   </cc:Work>
  </rdf:RDF>
 </metadata>
 <defs>
  <style type="text/css">*{stroke-linejoin: round; stroke-linecap: butt}</style>
 </defs>
 <g id="figure_1">
  <g id="patch_1">
   <path d="M 0 496.970625 
L 787.11299 496.970625 
L 787.11299 0 
L 0 0 
L 0 496.970625 
z
" style="fill: none"/>
  </g>
  <g id="axes_1">
   <g id="patch_2">
    <path d="M 81.880785 469.656875 
L 525.896785 469.656875 
L 525.896785 64.396875 
L 81.880785 64.396875 
L 81.880785 469.656875 
z
" style="fill: none"/>
   </g>
   <g id="matplotlib.axis_1">
    <g id="xtick_1">
     <g id="line2d_1">
      <defs>
       <path id="ma8ab22379a" d="M 0 0 
L 0 3.5 
" style="stroke: #808080; stroke-width: 0.8"/>
      </defs>
      <g>
       <use xlink:href="#ma8ab22379a" x="102.06333" y="469.656875" style="fill: #808080; stroke: #808080; stroke-width: 0.8"/>
      </g>
     </g>
     <g id="text_1">
      <!-- 2015 -->
      <g style="fill: #808080" transform="translate(86.79333 487.275) scale(0.12 -0.12)">
       <defs>
        <path id="DejaVuSans-32" d="M 1228 531 
L 3431 531 
L 3431 0 
L 469 0 
L 469 531 
Q 828 903 1448 1529 
Q 2069 2156 2228 2338 
Q 2531 2678 2651 2914 
Q 2772 3150 2772 3378 
Q 2772 3750 2511 3984 
Q 2250 4219 1831 4219 
Q 1534 4219 1204 4116 
Q 875 4013 500 3803 
L 500 4441 
Q 881 4594 1212 4672 
Q 1544 4750 1819 4750 
Q 2544 4750 2975 4387 
Q 3406 4025 3406 3419 
Q 3406 3131 3298 2873 
Q 3191 2616 2906 2266 
Q 2828 2175 2409 1742 
Q 1991 1309 1228 531 
z
" transform="scale(0.015625)"/>
        <path id="DejaVuSans-30" d="M 2034 4250 
Q 1547 4250 1301 3770 
Q 1056 3291 1056 2328 
Q 1056 1369 1301 889 
Q 1547 409 2034 409 
Q 2525 409 2770 889 
Q 3016 1369 3016 2328 
Q 3016 3291 2770 3770 
Q 2525 4250 2034 4250 
z
M 2034 4750 
Q 2819 4750 3233 4129 
Q 3647 3509 3647 2328 
Q 3647 1150 3233 529 
Q 2819 -91 2034 -91 
Q 1250 -91 836 529 
Q 422 1150 422 2328 
Q 422 3509 836 4129 
Q 1250 4750 2034 4750 
z
" transform="scale(0.015625)"/>
        <path id="DejaVuSans-31" d="M 794 531 
L 1825 531 
L 1825 4091 
L 703 3866 
L 703 4441 
L 1819 4666 
L 2450 4666 
L 2450 531 
L 3481 531 
L 3481 0 
L 794 0 
L 794 531 
z
" transform="scale(0.015625)"/>
        <path id="DejaVuSans-35" d="M 691 4666 
L 3169 4666 
L 3169 4134 
L 1269 4134 
L 1269 2991 
Q 1406 3038 1543 3061 
Q 1681 3084 1819 3084 
Q 2600 3084 3056 2656 
Q 3513 2228 3513 1497 
Q 3513 744 3044 326 
Q 2575 -91 1722 -91 
Q 1428 -91 1123 -41 
Q 819 9 494 109 
L 494 744 
Q 775 591 1075 516 
Q 1375 441 1709 441 
Q 2250 441 2565 725 
Q 2881 1009 2881 1497 
Q 2881 1984 2565 2268 
Q 2250 2553 1709 2553 
Q 1456 2553 1204 2497 
Q 953 2441 691 2322 
L 691 4666 
z
" transform="scale(0.015625)"/>
       </defs>
       <use xlink:href="#DejaVuSans-32"/>
       <use xlink:href="#DejaVuSans-30" transform="translate(63.623047 0)"/>
       <use xlink:href="#DejaVuSans-31" transform="translate(127.246094 0)"/>
       <use xlink:href="#DejaVuSans-35" transform="translate(190.869141 0)"/>
      </g>
     </g>
    </g>
    <g id="xtick_2">
     <g id="line2d_2">
      <g>
       <use xlink:href="#ma8ab22379a" x="142.428421" y="469.656875" style="fill: #808080; stroke: #808080; stroke-width: 0.8"/>
      </g>
     </g>
     <g id="text_2">
      <!-- 2016 -->
      <g style="fill: #808080" transform="translate(127.158421 487.275) scale(0.12 -0.12)">
       <defs>
        <path id="DejaVuSans-36" d="M 2113 2584 
Q 1688 2584 1439 2293 
Q 1191 2003 1191 1497 
Q 1191 994 1439 701 
Q 1688 409 2113 409 
Q 2538 409 2786 701 
Q 3034 994 3034 1497 
Q 3034 2003 2786 2293 
Q 2538 2584 2113 2584 
z
M 3366 4563 
L 3366 3988 
Q 3128 4100 2886 4159 
Q 2644 4219 2406 4219 
Q 1781 4219 1451 3797 
Q 1122 3375 1075 2522 
Q 1259 2794 1537 2939 
Q 1816 3084 2150 3084 
Q 2853 3084 3261 2657 
Q 3669 2231 3669 1497 
Q 3669 778 3244 343 
Q 2819 -91 2113 -91 
Q 1303 -91 875 529 
Q 447 1150 447 2328 
Q 447 3434 972 4092 
Q 1497 4750 2381 4750 
Q 2619 4750 2861 4703 
Q 3103 4656 3366 4563 
z
" transform="scale(0.015625)"/>
       </defs>
       <use xlink:href="#DejaVuSans-32"/>
       <use xlink:href="#DejaVuSans-30" transform="translate(63.623047 0)"/>
       <use xlink:href="#DejaVuSans-31" transform="translate(127.246094 0)"/>
       <use xlink:href="#DejaVuSans-36" transform="translate(190.869141 0)"/>
      </g>
     </g>
    </g>
    <g id="xtick_3">
     <g id="line2d_3">
      <g>
       <use xlink:href="#ma8ab22379a" x="182.793512" y="469.656875" style="fill: #808080; stroke: #808080; stroke-width: 0.8"/>
      </g>
     </g>
     <g id="text_3">
      <!-- 2017 -->
      <g style="fill: #808080" transform="translate(167.523512 487.275) scale(0.12 -0.12)">
       <defs>
        <path id="DejaVuSans-37" d="M 525 4666 
L 3525 4666 
L 3525 4397 
L 1831 0 
L 1172 0 
L 2766 4134 
L 525 4134 
L 525 4666 
z
" transform="scale(0.015625)"/>
       </defs>
       <use xlink:href="#DejaVuSans-32"/>
       <use xlink:href="#DejaVuSans-30" transform="translate(63.623047 0)"/>
       <use xlink:href="#DejaVuSans-31" transform="translate(127.246094 0)"/>
       <use xlink:href="#DejaVuSans-37" transform="translate(190.869141 0)"/>
      </g>
     </g>
    </g>
    <g id="xtick_4">
     <g id="line2d_4">
      <g>
       <use xlink:href="#ma8ab22379a" x="223.158603" y="469.656875" style="fill: #808080; stroke: #808080; stroke-width: 0.8"/>
      </g>
     </g>
     <g id="text_4">
      <!-- 2018 -->
      <g style="fill: #808080" transform="translate(207.888603 487.275) scale(0.12 -0.12)">
       <defs>
        <path id="DejaVuSans-38" d="M 2034 2216 
Q 1584 2216 1326 1975 
Q 1069 1734 1069 1313 
Q 1069 891 1326 650 
Q 1584 409 2034 409 
Q 2484 409 2743 651 
Q 3003 894 3003 1313 
Q 3003 1734 2745 1975 
Q 2488 2216 2034 2216 
z
M 1403 2484 
Q 997 2584 770 2862 
Q 544 3141 544 3541 
Q 544 4100 942 4425 
Q 1341 4750 2034 4750 
Q 2731 4750 3128 4425 
Q 3525 4100 3525 3541 
Q 3525 3141 3298 2862 
Q 3072 2584 2669 2484 
Q 3125 2378 3379 2068 
Q 3634 1759 3634 1313 
Q 3634 634 3220 271 
Q 2806 -91 2034 -91 
Q 1263 -91 848 271 
Q 434 634 434 1313 
Q 434 1759 690 2068 
Q 947 2378 1403 2484 
z
M 1172 3481 
Q 1172 3119 1398 2916 
Q 1625 2713 2034 2713 
Q 2441 2713 2670 2916 
Q 2900 3119 2900 3481 
Q 2900 3844 2670 4047 
Q 2441 4250 2034 4250 
Q 1625 4250 1398 4047 
Q 1172 3844 1172 3481 
z
" transform="scale(0.015625)"/>
       </defs>
       <use xlink:href="#DejaVuSans-32"/>
       <use xlink:href="#DejaVuSans-30" transform="translate(63.623047 0)"/>
       <use xlink:href="#DejaVuSans-31" transform="translate(127.246094 0)"/>
       <use xlink:href="#DejaVuSans-38" transform="translate(190.869141 0)"/>
      </g>
     </g>
    </g>
    <g id="xtick_5">
     <g id="line2d_5">
      <g>
       <use xlink:href="#ma8ab22379a" x="263.523694" y="469.656875" style="fill: #808080; stroke: #808080; stroke-width: 0.8"/>
      </g>
     </g>
     <g id="text_5">
      <!-- 2019 -->
      <g style="fill: #808080" transform="translate(248.253694 487.275) scale(0.12 -0.12)">
       <defs>
        <path id="DejaVuSans-39" d="M 703 97 
L 703 672 
Q 941 559 1184 500 
Q 1428 441 1663 441 
Q 2288 441 2617 861 
Q 2947 1281 2994 2138 
Q 2813 1869 2534 1725 
Q 2256 1581 1919 1581 
Q 1219 1581 811 2004 
Q 403 2428 403 3163 
Q 403 3881 828 4315 
Q 1253 4750 1959 4750 
Q 2769 4750 3195 4129 
Q 3622 3509 3622 2328 
Q 3622 1225 3098 567 
Q 2575 -91 1691 -91 
Q 1453 -91 1209 -44 
Q 966 3 703 97 
z
M 1959 2075 
Q 2384 2075 2632 2365 
Q 2881 2656 2881 3163 
Q 2881 3666 2632 3958 
Q 2384 4250 1959 4250 
Q 1534 4250 1286 3958 
Q 1038 3666 1038 3163 
Q 1038 2656 1286 2365 
Q 1534 2075 1959 2075 
z
" transform="scale(0.015625)"/>
       </defs>
       <use xlink:href="#DejaVuSans-32"/>
       <use xlink:href="#DejaVuSans-30" transform="translate(63.623047 0)"/>
       <use xlink:href="#DejaVuSans-31" transform="translate(127.246094 0)"/>
       <use xlink:href="#DejaVuSans-39" transform="translate(190.869141 0)"/>
      </g>
     </g>
    </g>
    <g id="xtick_6">
     <g id="line2d_6">
      <g>
       <use xlink:href="#ma8ab22379a" x="303.888785" y="469.656875" style="fill: #808080; stroke: #808080; stroke-width: 0.8"/>
      </g>
     </g>
     <g id="text_6">
      <!-- 2020 -->
      <g style="fill: #808080" transform="translate(288.618785 487.275) scale(0.12 -0.12)">
       <use xlink:href="#DejaVuSans-32"/>
       <use xlink:href="#DejaVuSans-30" transform="translate(63.623047 0)"/>
       <use xlink:href="#DejaVuSans-32" transform="translate(127.246094 0)"/>
       <use xlink:href="#DejaVuSans-30" transform="translate(190.869141 0)"/>
      </g>
     </g>
    </g>
    <g id="xtick_7">
     <g id="line2d_7">
      <g>
       <use xlink:href="#ma8ab22379a" x="344.253876" y="469.656875" style="fill: #808080; stroke: #808080; stroke-width: 0.8"/>
      </g>
     </g>
     <g id="text_7">
      <!-- 2021 -->
      <g style="fill: #808080" transform="translate(328.983876 487.275) scale(0.12 -0.12)">
       <use xlink:href="#DejaVuSans-32"/>
       <use xlink:href="#DejaVuSans-30" transform="translate(63.623047 0)"/>
       <use xlink:href="#DejaVuSans-32" transform="translate(127.246094 0)"/>
       <use xlink:href="#DejaVuSans-31" transform="translate(190.869141 0)"/>
      </g>
     </g>
    </g>
    <g id="xtick_8">
     <g id="line2d_8">
      <g>
       <use xlink:href="#ma8ab22379a" x="384.618967" y="469.656875" style="fill: #808080; stroke: #808080; stroke-width: 0.8"/>
      </g>
     </g>
     <g id="text_8">
      <!-- 2022 -->
      <g style="fill: #808080" transform="translate(369.348967 487.275) scale(0.12 -0.12)">
       <use xlink:href="#DejaVuSans-32"/>
       <use xlink:href="#DejaVuSans-30" transform="translate(63.623047 0)"/>
       <use xlink:href="#DejaVuSans-32" transform="translate(127.246094 0)"/>
       <use xlink:href="#DejaVuSans-32" transform="translate(190.869141 0)"/>
      </g>
     </g>
    </g>
    <g id="xtick_9">
     <g id="line2d_9">
      <g>
       <use xlink:href="#ma8ab22379a" x="424.984058" y="469.656875" style="fill: #808080; stroke: #808080; stroke-width: 0.8"/>
      </g>
     </g>
     <g id="text_9">
      <!-- 2023 -->
      <g style="fill: #808080" transform="translate(409.714058 487.275) scale(0.12 -0.12)">
       <defs>
        <path id="DejaVuSans-33" d="M 2597 2516 
Q 3050 2419 3304 2112 
Q 3559 1806 3559 1356 
Q 3559 666 3084 287 
Q 2609 -91 1734 -91 
Q 1441 -91 1130 -33 
Q 819 25 488 141 
L 488 750 
Q 750 597 1062 519 
Q 1375 441 1716 441 
Q 2309 441 2620 675 
Q 2931 909 2931 1356 
Q 2931 1769 2642 2001 
Q 2353 2234 1838 2234 
L 1294 2234 
L 1294 2753 
L 1863 2753 
Q 2328 2753 2575 2939 
Q 2822 3125 2822 3475 
Q 2822 3834 2567 4026 
Q 2313 4219 1838 4219 
Q 1578 4219 1281 4162 
Q 984 4106 628 3988 
L 628 4550 
Q 988 4650 1302 4700 
Q 1616 4750 1894 4750 
Q 2613 4750 3031 4423 
Q 3450 4097 3450 3541 
Q 3450 3153 3228 2886 
Q 3006 2619 2597 2516 
z
" transform="scale(0.015625)"/>
       </defs>
       <use xlink:href="#DejaVuSans-32"/>
       <use xlink:href="#DejaVuSans-30" transform="translate(63.623047 0)"/>
       <use xlink:href="#DejaVuSans-32" transform="translate(127.246094 0)"/>
       <use xlink:href="#DejaVuSans-33" transform="translate(190.869141 0)"/>
      </g>
     </g>
    </g>
    <g id="xtick_10">
     <g id="line2d_10">
      <g>
       <use xlink:href="#ma8ab22379a" x="465.349149" y="469.656875" style="fill: #808080; stroke: #808080; stroke-width: 0.8"/>
      </g>
     </g>
     <g id="text_10">
      <!-- 2024 -->
      <g style="fill: #808080" transform="translate(450.079149 487.275) scale(0.12 -0.12)">
       <defs>
        <path id="DejaVuSans-34" d="M 2419 4116 
L 825 1625 
L 2419 1625 
L 2419 4116 
z
M 2253 4666 
L 3047 4666 
L 3047 1625 
L 3713 1625 
L 3713 1100 
L 3047 1100 
L 3047 0 
L 2419 0 
L 2419 1100 
L 313 1100 
L 313 1709 
L 2253 4666 
z
" transform="scale(0.015625)"/>
       </defs>
       <use xlink:href="#DejaVuSans-32"/>
       <use xlink:href="#DejaVuSans-30" transform="translate(63.623047 0)"/>
       <use xlink:href="#DejaVuSans-32" transform="translate(127.246094 0)"/>
       <use xlink:href="#DejaVuSans-34" transform="translate(190.869141 0)"/>
      </g>
     </g>
    </g>
    <g id="xtick_11">
     <g id="line2d_11">
      <g>
       <use xlink:href="#ma8ab22379a" x="505.71424" y="469.656875" style="fill: #808080; stroke: #808080; stroke-width: 0.8"/>
      </g>
     </g>
     <g id="text_11">
      <!-- 2025 -->
      <g style="fill: #808080" transform="translate(490.44424 487.275) scale(0.12 -0.12)">
       <use xlink:href="#DejaVuSans-32"/>
       <use xlink:href="#DejaVuSans-30" transform="translate(63.623047 0)"/>
       <use xlink:href="#DejaVuSans-32" transform="translate(127.246094 0)"/>
       <use xlink:href="#DejaVuSans-35" transform="translate(190.869141 0)"/>
      </g>
     </g>
    </g>
   </g>
   <g id="matplotlib.axis_2"/>
   <g id="line2d_12">
    <path d="M 102.06333 377.417595 
L 142.428421 351.49912 
L 182.793512 299.662169 
L 223.158603 82.404362 
L 263.523694 314.908331 
L 303.888785 302.711402 
L 344.253876 231.054441 
L 384.618967 240.964446 
L 424.984058 282.891391 
L 465.349149 314.908331 
L 505.71424 342.351423 
" clip-path="url(#p0fc91d267e)" style="fill: none; stroke: #d3d3d3; stroke-opacity: 0.5; stroke-width: 1.5; stroke-linecap: square"/>
   </g>
   <g id="line2d_13">
    <path d="M 102.06333 377.417595 
L 142.428421 380.069908 
L 182.793512 344.365697 
L 223.158603 331.512181 
L 263.523694 318.658665 
L 303.888785 365.5842 
L 344.253876 298.86833 
L 384.618967 256.431325 
L 424.984058 282.546405 
L 465.349149 318.862689 
L 505.71424 347.01801 
" clip-path="url(#p0fc91d267e)" style="fill: none; stroke: #d3d3d3; stroke-opacity: 0.5; stroke-width: 1.5; stroke-linecap: square"/>
   </g>
   <g id="line2d_14">
    <path d="M 102.06333 377.417595 
L 142.428421 386.88497 
L 182.793512 292.211223 
L 223.158603 230.673287 
L 263.523694 222.33298 
L 303.888785 266.063235 
L 344.253876 271.923991 
L 384.618967 250.960518 
L 424.984058 316.105073 
L 465.349149 393.196553 
L 505.71424 405.143478 
" clip-path="url(#p0fc91d267e)" style="fill: none; stroke: #d3d3d3; stroke-opacity: 0.5; stroke-width: 1.5; stroke-linecap: square"/>
   </g>
   <g id="line2d_15">
    <path d="M 102.06333 377.417595 
L 142.428421 382.245547 
L 182.793512 324.564234 
L 223.158603 167.274663 
L 263.523694 142.118496 
L 303.888785 186.840571 
L 344.253876 234.357776 
L 384.618967 235.374187 
L 424.984058 293.309602 
L 465.349149 365.728871 
L 505.71424 333.966034 
" clip-path="url(#p0fc91d267e)" style="fill: none; stroke: #d3d3d3; stroke-opacity: 0.5; stroke-width: 1.5; stroke-linecap: square"/>
   </g>
   <g id="line2d_16">
    <path d="M 102.06333 377.417595 
L 142.428421 370.125953 
L 182.793512 341.108191 
L 223.158603 312.016025 
L 263.523694 311.27198 
L 303.888785 361.792647 
L 344.253876 259.040009 
L 384.618967 189.694999 
L 424.984058 188.132504 
L 465.349149 213.876467 
L 505.71424 277.492329 
" clip-path="url(#p0fc91d267e)" style="fill: none; stroke: #d3d3d3; stroke-opacity: 0.5; stroke-width: 1.5; stroke-linecap: square"/>
   </g>
   <g id="line2d_17">
    <path d="M 102.06333 377.417595 
L 142.428421 413.263533 
L 182.793512 415.823957 
L 223.158603 413.263533 
L 263.523694 401.101519 
L 303.888785 412.623427 
L 344.253876 403.661943 
L 384.618967 397.900988 
L 424.984058 369.736323 
L 465.349149 406.862473 
L 505.71424 408.142685 
" clip-path="url(#p0fc91d267e)" style="fill: none; stroke: #d3d3d3; stroke-opacity: 0.5; stroke-width: 1.5; stroke-linecap: square"/>
   </g>
   <g id="line2d_18">
    <path d="M 102.06333 377.417595 
L 142.428421 401.531648 
L 182.793512 357.120591 
L 223.158603 320.343632 
L 263.523694 321.97951 
L 303.888785 363.179399 
L 344.253876 381.174056 
L 384.618967 363.179399 
L 424.984058 377.962888 
L 465.349149 420.435126 
L 505.71424 430.008041 
" clip-path="url(#p0fc91d267e)" style="fill: none; stroke: #d3d3d3; stroke-opacity: 0.5; stroke-width: 1.5; stroke-linecap: square"/>
   </g>
   <g id="line2d_19">
    <path d="M 102.06333 377.417595 
L 142.428421 400.619885 
L 182.793512 374.975249 
L 223.158603 308.217783 
L 263.523694 282.166088 
L 303.888785 359.099998 
L 344.253876 305.775436 
L 384.618967 346.074151 
L 424.984058 345.260035 
L 465.349149 294.784878 
L 505.71424 364.798806 
" clip-path="url(#p0fc91d267e)" style="fill: none; stroke: #d3d3d3; stroke-opacity: 0.5; stroke-width: 1.5; stroke-linecap: square"/>
   </g>
   <g id="line2d_20">
    <path d="M 102.06333 377.417595 
L 142.428421 403.724698 
L 182.793512 393.859535 
L 223.158603 372.485013 
L 263.523694 360.975656 
L 303.888785 349.466298 
L 344.253876 277.121765 
L 384.618967 273.833377 
L 424.984058 204.777232 
L 465.349149 204.777232 
L 505.71424 270.54499 
" clip-path="url(#p0fc91d267e)" style="fill: none; stroke: #d3d3d3; stroke-opacity: 0.5; stroke-width: 1.5; stroke-linecap: square"/>
   </g>
   <g id="line2d_21">
    <path d="M 102.06333 377.417595 
L 142.428421 375.946474 
L 182.793512 275.910254 
L 223.158603 178.816275 
L 263.523694 206.767572 
L 303.888785 292.092584 
L 344.253876 345.052936 
L 384.618967 292.092584 
L 424.984058 287.679221 
L 465.349149 368.59087 
L 505.71424 383.302079 
" clip-path="url(#p0fc91d267e)" style="fill: none; stroke: #d3d3d3; stroke-opacity: 0.5; stroke-width: 1.5; stroke-linecap: square"/>
   </g>
   <g id="line2d_22">
    <path d="M 102.06333 377.417595 
L 142.428421 352.007325 
L 182.793512 362.171433 
L 223.158603 357.089379 
L 263.523694 402.827865 
L 303.888785 412.991973 
L 344.253876 407.909919 
L 384.618967 397.745811 
L 424.984058 415.533 
L 465.349149 402.827865 
L 505.71424 420.615054 
" clip-path="url(#p0fc91d267e)" style="fill: none; stroke: #d3d3d3; stroke-opacity: 0.5; stroke-width: 1.5; stroke-linecap: square"/>
   </g>
   <g id="line2d_23">
    <path d="M 102.06333 377.417595 
L 142.428421 385.272761 
L 182.793512 366.616743 
L 223.158603 348.942621 
L 263.523694 355.619511 
L 303.888785 363.867435 
L 344.253876 341.676593 
L 384.618967 326.751778 
L 424.984058 337.74901 
L 465.349149 361.707265 
L 505.71424 373.882771 
" clip-path="url(#p0fc91d267e)" style="fill: none; stroke: #d3d3d3; stroke-opacity: 0.5; stroke-width: 1.5; stroke-linecap: square"/>
   </g>
   <g id="line2d_24">
    <path d="M 102.06333 377.417595 
L 142.428421 395.701526 
L 182.793512 341.480214 
L 223.158603 285.99794 
L 263.523694 275.910254 
L 303.888785 293.563705 
L 344.253876 241.233833 
L 384.618967 226.102304 
L 424.984058 250.060558 
L 465.349149 281.584577 
L 505.71424 311.217155 
" clip-path="url(#p0fc91d267e)" style="fill: none; stroke: #d3d3d3; stroke-opacity: 0.5; stroke-width: 1.5; stroke-linecap: square"/>
   </g>
   <g id="line2d_25">
    <path d="M 102.06333 377.417595 
L 142.428421 442.5541 
L 182.793512 411.857586 
L 223.158603 372.925423 
L 263.523694 432.072363 
L 303.888785 411.857586 
L 344.253876 427.580191 
L 384.618967 403.621936 
L 424.984058 387.899332 
L 465.349149 386.401941 
L 505.71424 398.381068 
" clip-path="url(#p0fc91d267e)" style="fill: none; stroke: #d3d3d3; stroke-opacity: 0.5; stroke-width: 1.5; stroke-linecap: square"/>
   </g>
   <g id="line2d_26">
    <path d="M 102.06333 377.417595 
L 142.428421 375.713248 
L 182.793512 383.894115 
L 223.158603 374.008901 
L 263.523694 384.916724 
L 303.888785 409.118456 
L 344.253876 404.346284 
L 384.618967 384.916724 
L 424.984058 411.163673 
L 465.349149 408.095848 
L 505.71424 433.661059 
" clip-path="url(#p0fc91d267e)" style="fill: none; stroke: #d3d3d3; stroke-opacity: 0.5; stroke-width: 1.5; stroke-linecap: square"/>
   </g>
   <g id="line2d_27">
    <path d="M 102.06333 377.417595 
L 142.428421 393.007333 
L 182.793512 392.830177 
L 223.158603 354.761298 
L 263.523694 324.487287 
L 303.888785 369.524307 
L 344.253876 320.471749 
L 384.618967 312.97214 
L 424.984058 333.423829 
L 465.349149 409.010434 
L 505.71424 414.226698 
" clip-path="url(#p0fc91d267e)" style="fill: none; stroke: #c8000b; stroke-opacity: 0.75; stroke-width: 1.5; stroke-linecap: square"/>
   </g>
   <g id="line2d_28">
    <path d="M 102.06333 377.417595 
L 142.428421 363.690085 
L 182.793512 350.063512 
L 223.158603 335.831314 
L 263.523694 337.572487 
L 303.888785 388.848776 
L 344.253876 355.438438 
L 384.618967 321.952398 
L 424.984058 356.19547 
L 465.349149 387.915103 
L 505.71424 398.46308 
" clip-path="url(#p0fc91d267e)" style="fill: none; stroke: #5ba8a0; stroke-opacity: 0.75; stroke-width: 1.5; stroke-linecap: square"/>
   </g>
   <g id="line2d_29">
    <path d="M 102.06333 377.417595 
L 142.428421 401.37585 
L 182.793512 377.417595 
L 223.158603 341.480214 
L 263.523694 341.480214 
L 303.888785 293.563705 
L 344.253876 353.459341 
L 384.618967 125.855923 
L 424.984058 341.480214 
L 465.349149 293.563705 
L 505.71424 269.60545 
" clip-path="url(#p0fc91d267e)" style="fill: none; stroke: #ff8c00; stroke-opacity: 0.75; stroke-width: 1.5; stroke-linecap: square"/>
   </g>
   <g id="line2d_30">
    <path d="M 102.06333 377.417595 
L 142.428421 384.431989 
L 182.793512 368.809021 
L 223.158603 365.301824 
L 263.523694 371.997382 
L 303.888785 398.460777 
L 344.253876 368.171349 
L 384.618967 381.881301 
L 424.984058 375.823415 
L 465.349149 406.750515 
L 505.71424 429.706713 
" clip-path="url(#p0fc91d267e)" style="fill: none; stroke: #4a6fa5; stroke-opacity: 0.75; stroke-width: 1.5; stroke-linecap: square"/>
   </g>
   <g id="line2d_31">
    <path d="M 102.06333 377.417595 
L 142.428421 353.531942 
L 182.793512 331.67911 
L 223.158603 323.801926 
L 263.523694 359.376304 
L 303.888785 359.630406 
L 344.253876 364.71246 
L 384.618967 358.10579 
L 424.984058 335.236547 
L 465.349149 377.671698 
L 505.71424 384.786574 
" clip-path="url(#p0fc91d267e)" style="fill: none; stroke: #8b4789; stroke-opacity: 0.75; stroke-width: 1.5; stroke-linecap: square"/>
   </g>
   <g id="line2d_32">
    <path d="M 81.880785 377.417595 
L 525.896785 377.417595 
" clip-path="url(#p0fc91d267e)" style="fill: none; stroke-dasharray: 5.55,2.4; stroke-dashoffset: 0; stroke: #808080; stroke-opacity: 0.7; stroke-width: 1.5"/>
   </g>
   <g id="line2d_33">
    <path d="M 81.880785 293.563705 
L 525.896785 293.563705 
" clip-path="url(#p0fc91d267e)" style="fill: none; stroke-dasharray: 5.55,2.4; stroke-dashoffset: 0; stroke: #808080; stroke-opacity: 0.7; stroke-width: 1.5"/>
   </g>
   <g id="line2d_34">
    <path d="M 81.880785 209.709814 
L 525.896785 209.709814 
" clip-path="url(#p0fc91d267e)" style="fill: none; stroke-dasharray: 5.55,2.4; stroke-dashoffset: 0; stroke: #808080; stroke-opacity: 0.7; stroke-width: 1.5"/>
   </g>
   <g id="line2d_35">
    <path d="M 81.880785 125.855923 
L 525.896785 125.855923 
" clip-path="url(#p0fc91d267e)" style="fill: none; stroke-dasharray: 5.55,2.4; stroke-dashoffset: 0; stroke: #808080; stroke-opacity: 0.7; stroke-width: 1.5"/>
   </g>
   <g id="line2d_36">
    <defs>
     <path id="m9f019fb105" d="M 0 1.5 
C 0.397805 1.5 0.77937 1.341951 1.06066 1.06066 
C 1.341951 0.77937 1.5 0.397805 1.5 0 
C 1.5 -0.397805 1.341951 -0.77937 1.06066 -1.06066 
C 0.77937 -1.341951 0.397805 -1.5 0 -1.5 
C -0.397805 -1.5 -0.77937 -1.341951 -1.06066 -1.06066 
C -1.341951 -0.77937 -1.5 -0.397805 -1.5 0 
C -1.5 0.397805 -1.341951 0.77937 -1.06066 1.06066 
C -0.77937 1.341951 -0.397805 1.5 0 1.5 
z
" style="stroke: #c8000b"/>
    </defs>
    <g clip-path="url(#p0fc91d267e)">
     <use xlink:href="#m9f019fb105" x="505.71424" y="414.226698" style="fill: #c8000b; stroke: #c8000b"/>
    </g>
   </g>
   <g id="line2d_37">
    <defs>
     <path id="mc1f63558df" d="M 0 1.5 
C 0.397805 1.5 0.77937 1.341951 1.06066 1.06066 
C 1.341951 0.77937 1.5 0.397805 1.5 0 
C 1.5 -0.397805 1.341951 -0.77937 1.06066 -1.06066 
C 0.77937 -1.341951 0.397805 -1.5 0 -1.5 
C -0.397805 -1.5 -0.77937 -1.341951 -1.06066 -1.06066 
C -1.341951 -0.77937 -1.5 -0.397805 -1.5 0 
C -1.5 0.397805 -1.341951 0.77937 -1.06066 1.06066 
C -0.77937 1.341951 -0.397805 1.5 0 1.5 
z
" style="stroke: #5ba8a0"/>
    </defs>
    <g clip-path="url(#p0fc91d267e)">
     <use xlink:href="#mc1f63558df" x="505.71424" y="398.46308" style="fill: #5ba8a0; stroke: #5ba8a0"/>
    </g>
   </g>
   <g id="line2d_38">
    <defs>
     <path id="m59ff017d8f" d="M 0 1.5 
C 0.397805 1.5 0.77937 1.341951 1.06066 1.06066 
C 1.341951 0.77937 1.5 0.397805 1.5 0 
C 1.5 -0.397805 1.341951 -0.77937 1.06066 -1.06066 
C 0.77937 -1.341951 0.397805 -1.5 0 -1.5 
C -0.397805 -1.5 -0.77937 -1.341951 -1.06066 -1.06066 
C -1.341951 -0.77937 -1.5 -0.397805 -1.5 0 
C -1.5 0.397805 -1.341951 0.77937 -1.06066 1.06066 
C -0.77937 1.341951 -0.397805 1.5 0 1.5 
z
" style="stroke: #ff8c00"/>
    </defs>
    <g clip-path="url(#p0fc91d267e)">
     <use xlink:href="#m59ff017d8f" x="505.71424" y="269.60545" style="fill: #ff8c00; stroke: #ff8c00"/>
    </g>
   </g>
   <g id="line2d_39">
    <defs>
     <path id="mb3abd6faad" d="M 0 1.5 
C 0.397805 1.5 0.77937 1.341951 1.06066 1.06066 
C 1.341951 0.77937 1.5 0.397805 1.5 0 
C 1.5 -0.397805 1.341951 -0.77937 1.06066 -1.06066 
C 0.77937 -1.341951 0.397805 -1.5 0 -1.5 
C -0.397805 -1.5 -0.77937 -1.341951 -1.06066 -1.06066 
C -1.341951 -0.77937 -1.5 -0.397805 -1.5 0 
C -1.5 0.397805 -1.341951 0.77937 -1.06066 1.06066 
C -0.77937 1.341951 -0.397805 1.5 0 1.5 
z
" style="stroke: #4a6fa5"/>
    </defs>
    <g clip-path="url(#p0fc91d267e)">
     <use xlink:href="#mb3abd6faad" x="505.71424" y="429.706713" style="fill: #4a6fa5; stroke: #4a6fa5"/>
    </g>
   </g>
   <g id="line2d_40">
    <defs>
     <path id="md7f9060683" d="M 0 1.5 
C 0.397805 1.5 0.77937 1.341951 1.06066 1.06066 
C 1.341951 0.77937 1.5 0.397805 1.5 0 
C 1.5 -0.397805 1.341951 -0.77937 1.06066 -1.06066 
C 0.77937 -1.341951 0.397805 -1.5 0 -1.5 
C -0.397805 -1.5 -0.77937 -1.341951 -1.06066 -1.06066 
C -1.341951 -0.77937 -1.5 -0.397805 -1.5 0 
C -1.5 0.397805 -1.341951 0.77937 -1.06066 1.06066 
C -0.77937 1.341951 -0.397805 1.5 0 1.5 
z
" style="stroke: #8b4789"/>
    </defs>
    <g clip-path="url(#p0fc91d267e)">
     <use xlink:href="#md7f9060683" x="505.71424" y="384.786574" style="fill: #8b4789; stroke: #8b4789"/>
    </g>
   </g>
   <g id="patch_3">
    <path d="M 81.880785 469.656875 
L 525.896785 469.656875 
" style="fill: none; stroke: #000000; stroke-width: 0.8; stroke-linejoin: miter; stroke-linecap: square"/>
   </g>
   <g id="text_12">
    <!-- +0% -->
    <g style="fill: #808080" transform="translate(31.3775 382.660408) scale(0.19 -0.19)">
     <defs>
      <path id="DejaVuSans-2b" d="M 2944 4013 
L 2944 2272 
L 4684 2272 
L 4684 1741 
L 2944 1741 
L 2944 0 
L 2419 0 
L 2419 1741 
L 678 1741 
L 678 2272 
L 2419 2272 
L 2419 4013 
L 2944 4013 
z
" transform="scale(0.015625)"/>
      <path id="DejaVuSans-25" d="M 4653 2053 
Q 4381 2053 4226 1822 
Q 4072 1591 4072 1178 
Q 4072 772 4226 539 
Q 4381 306 4653 306 
Q 4919 306 5073 539 
Q 5228 772 5228 1178 
Q 5228 1588 5073 1820 
Q 4919 2053 4653 2053 
z
M 4653 2450 
Q 5147 2450 5437 2106 
Q 5728 1763 5728 1178 
Q 5728 594 5436 251 
Q 5144 -91 4653 -91 
Q 4153 -91 3862 251 
Q 3572 594 3572 1178 
Q 3572 1766 3864 2108 
Q 4156 2450 4653 2450 
z
M 1428 4353 
Q 1159 4353 1004 4120 
Q 850 3888 850 3481 
Q 850 3069 1003 2837 
Q 1156 2606 1428 2606 
Q 1700 2606 1854 2837 
Q 2009 3069 2009 3481 
Q 2009 3884 1853 4118 
Q 1697 4353 1428 4353 
z
M 4250 4750 
L 4750 4750 
L 1831 -91 
L 1331 -91 
L 4250 4750 
z
M 1428 4750 
Q 1922 4750 2215 4408 
Q 2509 4066 2509 3481 
Q 2509 2891 2217 2550 
Q 1925 2209 1428 2209 
Q 931 2209 642 2551 
Q 353 2894 353 3481 
Q 353 4063 643 4406 
Q 934 4750 1428 4750 
z
" transform="scale(0.015625)"/>
     </defs>
     <use xlink:href="#DejaVuSans-2b"/>
     <use xlink:href="#DejaVuSans-30" transform="translate(83.789062 0)"/>
     <use xlink:href="#DejaVuSans-25" transform="translate(147.412109 0)"/>
    </g>
   </g>
   <g id="text_13">
    <!-- +100% -->
    <g style="fill: #808080" transform="translate(7.2 298.806517) scale(0.19 -0.19)">
     <use xlink:href="#DejaVuSans-2b"/>
     <use xlink:href="#DejaVuSans-31" transform="translate(83.789062 0)"/>
     <use xlink:href="#DejaVuSans-30" transform="translate(147.412109 0)"/>
     <use xlink:href="#DejaVuSans-30" transform="translate(211.035156 0)"/>
     <use xlink:href="#DejaVuSans-25" transform="translate(274.658203 0)"/>
    </g>
   </g>
   <g id="text_14">
    <!-- +200% -->
    <g style="fill: #808080" transform="translate(7.2 214.952627) scale(0.19 -0.19)">
     <use xlink:href="#DejaVuSans-2b"/>
     <use xlink:href="#DejaVuSans-32" transform="translate(83.789062 0)"/>
     <use xlink:href="#DejaVuSans-30" transform="translate(147.412109 0)"/>
     <use xlink:href="#DejaVuSans-30" transform="translate(211.035156 0)"/>
     <use xlink:href="#DejaVuSans-25" transform="translate(274.658203 0)"/>
    </g>
   </g>
   <g id="text_15">
    <!-- +300% -->
    <g style="fill: #808080" transform="translate(7.2 131.098736) scale(0.19 -0.19)">
     <use xlink:href="#DejaVuSans-2b"/>
     <use xlink:href="#DejaVuSans-33" transform="translate(83.789062 0)"/>
     <use xlink:href="#DejaVuSans-30" transform="translate(147.412109 0)"/>
     <use xlink:href="#DejaVuSans-30" transform="translate(211.035156 0)"/>
     <use xlink:href="#DejaVuSans-25" transform="translate(274.658203 0)"/>
    </g>
   </g>
   <g id="text_16">
    <!-- Agriculture, forestry &amp; fisheries -->
    <g style="fill: #c8000b" transform="translate(513.71424 425.917635) scale(0.17 -0.17)">
     <defs>
      <path id="DejaVuSans-41" d="M 2188 4044 
L 1331 1722 
L 3047 1722 
L 2188 4044 
z
M 1831 4666 
L 2547 4666 
L 4325 0 
L 3669 0 
L 3244 1197 
L 1141 1197 
L 716 0 
L 50 0 
L 1831 4666 
z
" transform="scale(0.015625)"/>
      <path id="DejaVuSans-67" d="M 2906 1791 
Q 2906 2416 2648 2759 
Q 2391 3103 1925 3103 
Q 1463 3103 1205 2759 
Q 947 2416 947 1791 
Q 947 1169 1205 825 
Q 1463 481 1925 481 
Q 2391 481 2648 825 
Q 2906 1169 2906 1791 
z
M 3481 434 
Q 3481 -459 3084 -895 
Q 2688 -1331 1869 -1331 
Q 1566 -1331 1297 -1286 
Q 1028 -1241 775 -1147 
L 775 -588 
Q 1028 -725 1275 -790 
Q 1522 -856 1778 -856 
Q 2344 -856 2625 -561 
Q 2906 -266 2906 331 
L 2906 616 
Q 2728 306 2450 153 
Q 2172 0 1784 0 
Q 1141 0 747 490 
Q 353 981 353 1791 
Q 353 2603 747 3093 
Q 1141 3584 1784 3584 
Q 2172 3584 2450 3431 
Q 2728 3278 2906 2969 
L 2906 3500 
L 3481 3500 
L 3481 434 
z
" transform="scale(0.015625)"/>
      <path id="DejaVuSans-72" d="M 2631 2963 
Q 2534 3019 2420 3045 
Q 2306 3072 2169 3072 
Q 1681 3072 1420 2755 
Q 1159 2438 1159 1844 
L 1159 0 
L 581 0 
L 581 3500 
L 1159 3500 
L 1159 2956 
Q 1341 3275 1631 3429 
Q 1922 3584 2338 3584 
Q 2397 3584 2469 3576 
Q 2541 3569 2628 3553 
L 2631 2963 
z
" transform="scale(0.015625)"/>
      <path id="DejaVuSans-69" d="M 603 3500 
L 1178 3500 
L 1178 0 
L 603 0 
L 603 3500 
z
M 603 4863 
L 1178 4863 
L 1178 4134 
L 603 4134 
L 603 4863 
z
" transform="scale(0.015625)"/>
      <path id="DejaVuSans-63" d="M 3122 3366 
L 3122 2828 
Q 2878 2963 2633 3030 
Q 2388 3097 2138 3097 
Q 1578 3097 1268 2742 
Q 959 2388 959 1747 
Q 959 1106 1268 751 
Q 1578 397 2138 397 
Q 2388 397 2633 464 
Q 2878 531 3122 666 
L 3122 134 
Q 2881 22 2623 -34 
Q 2366 -91 2075 -91 
Q 1284 -91 818 406 
Q 353 903 353 1747 
Q 353 2603 823 3093 
Q 1294 3584 2113 3584 
Q 2378 3584 2631 3529 
Q 2884 3475 3122 3366 
z
" transform="scale(0.015625)"/>
      <path id="DejaVuSans-75" d="M 544 1381 
L 544 3500 
L 1119 3500 
L 1119 1403 
Q 1119 906 1312 657 
Q 1506 409 1894 409 
Q 2359 409 2629 706 
Q 2900 1003 2900 1516 
L 2900 3500 
L 3475 3500 
L 3475 0 
L 2900 0 
L 2900 538 
Q 2691 219 2414 64 
Q 2138 -91 1772 -91 
Q 1169 -91 856 284 
Q 544 659 544 1381 
z
M 1991 3584 
L 1991 3584 
z
" transform="scale(0.015625)"/>
      <path id="DejaVuSans-6c" d="M 603 4863 
L 1178 4863 
L 1178 0 
L 603 0 
L 603 4863 
z
" transform="scale(0.015625)"/>
      <path id="DejaVuSans-74" d="M 1172 4494 
L 1172 3500 
L 2356 3500 
L 2356 3053 
L 1172 3053 
L 1172 1153 
Q 1172 725 1289 603 
Q 1406 481 1766 481 
L 2356 481 
L 2356 0 
L 1766 0 
Q 1100 0 847 248 
Q 594 497 594 1153 
L 594 3053 
L 172 3053 
L 172 3500 
L 594 3500 
L 594 4494 
L 1172 4494 
z
" transform="scale(0.015625)"/>
      <path id="DejaVuSans-65" d="M 3597 1894 
L 3597 1613 
L 953 1613 
Q 991 1019 1311 708 
Q 1631 397 2203 397 
Q 2534 397 2845 478 
Q 3156 559 3463 722 
L 3463 178 
Q 3153 47 2828 -22 
Q 2503 -91 2169 -91 
Q 1331 -91 842 396 
Q 353 884 353 1716 
Q 353 2575 817 3079 
Q 1281 3584 2069 3584 
Q 2775 3584 3186 3129 
Q 3597 2675 3597 1894 
z
M 3022 2063 
Q 3016 2534 2758 2815 
Q 2500 3097 2075 3097 
Q 1594 3097 1305 2825 
Q 1016 2553 972 2059 
L 3022 2063 
z
" transform="scale(0.015625)"/>
      <path id="DejaVuSans-2c" d="M 750 794 
L 1409 794 
L 1409 256 
L 897 -744 
L 494 -744 
L 750 256 
L 750 794 
z
" transform="scale(0.015625)"/>
      <path id="DejaVuSans-20" transform="scale(0.015625)"/>
      <path id="DejaVuSans-66" d="M 2375 4863 
L 2375 4384 
L 1825 4384 
Q 1516 4384 1395 4259 
Q 1275 4134 1275 3809 
L 1275 3500 
L 2222 3500 
L 2222 3053 
L 1275 3053 
L 1275 0 
L 697 0 
L 697 3053 
L 147 3053 
L 147 3500 
L 697 3500 
L 697 3744 
Q 697 4328 969 4595 
Q 1241 4863 1831 4863 
L 2375 4863 
z
" transform="scale(0.015625)"/>
      <path id="DejaVuSans-6f" d="M 1959 3097 
Q 1497 3097 1228 2736 
Q 959 2375 959 1747 
Q 959 1119 1226 758 
Q 1494 397 1959 397 
Q 2419 397 2687 759 
Q 2956 1122 2956 1747 
Q 2956 2369 2687 2733 
Q 2419 3097 1959 3097 
z
M 1959 3584 
Q 2709 3584 3137 3096 
Q 3566 2609 3566 1747 
Q 3566 888 3137 398 
Q 2709 -91 1959 -91 
Q 1206 -91 779 398 
Q 353 888 353 1747 
Q 353 2609 779 3096 
Q 1206 3584 1959 3584 
z
" transform="scale(0.015625)"/>
      <path id="DejaVuSans-73" d="M 2834 3397 
L 2834 2853 
Q 2591 2978 2328 3040 
Q 2066 3103 1784 3103 
Q 1356 3103 1142 2972 
Q 928 2841 928 2578 
Q 928 2378 1081 2264 
Q 1234 2150 1697 2047 
L 1894 2003 
Q 2506 1872 2764 1633 
Q 3022 1394 3022 966 
Q 3022 478 2636 193 
Q 2250 -91 1575 -91 
Q 1294 -91 989 -36 
Q 684 19 347 128 
L 347 722 
Q 666 556 975 473 
Q 1284 391 1588 391 
Q 1994 391 2212 530 
Q 2431 669 2431 922 
Q 2431 1156 2273 1281 
Q 2116 1406 1581 1522 
L 1381 1569 
Q 847 1681 609 1914 
Q 372 2147 372 2553 
Q 372 3047 722 3315 
Q 1072 3584 1716 3584 
Q 2034 3584 2315 3537 
Q 2597 3491 2834 3397 
z
" transform="scale(0.015625)"/>
      <path id="DejaVuSans-79" d="M 2059 -325 
Q 1816 -950 1584 -1140 
Q 1353 -1331 966 -1331 
L 506 -1331 
L 506 -850 
L 844 -850 
Q 1081 -850 1212 -737 
Q 1344 -625 1503 -206 
L 1606 56 
L 191 3500 
L 800 3500 
L 1894 763 
L 2988 3500 
L 3597 3500 
L 2059 -325 
z
" transform="scale(0.015625)"/>
      <path id="DejaVuSans-26" d="M 1556 2509 
Q 1272 2256 1139 2004 
Q 1006 1753 1006 1478 
Q 1006 1022 1337 719 
Q 1669 416 2169 416 
Q 2466 416 2725 514 
Q 2984 613 3213 813 
L 1556 2509 
z
M 1997 2859 
L 3584 1234 
Q 3769 1513 3872 1830 
Q 3975 2147 3994 2503 
L 4575 2503 
Q 4538 2091 4375 1687 
Q 4213 1284 3922 891 
L 4794 0 
L 4006 0 
L 3559 459 
Q 3234 181 2878 45 
Q 2522 -91 2113 -91 
Q 1359 -91 881 339 
Q 403 769 403 1441 
Q 403 1841 612 2192 
Q 822 2544 1241 2853 
Q 1091 3050 1012 3245 
Q 934 3441 934 3628 
Q 934 4134 1281 4442 
Q 1628 4750 2203 4750 
Q 2463 4750 2720 4694 
Q 2978 4638 3244 4525 
L 3244 3956 
Q 2972 4103 2725 4179 
Q 2478 4256 2266 4256 
Q 1938 4256 1733 4082 
Q 1528 3909 1528 3634 
Q 1528 3475 1620 3314 
Q 1713 3153 1997 2859 
z
" transform="scale(0.015625)"/>
      <path id="DejaVuSans-68" d="M 3513 2113 
L 3513 0 
L 2938 0 
L 2938 2094 
Q 2938 2591 2744 2837 
Q 2550 3084 2163 3084 
Q 1697 3084 1428 2787 
Q 1159 2491 1159 1978 
L 1159 0 
L 581 0 
L 581 4863 
L 1159 4863 
L 1159 2956 
Q 1366 3272 1645 3428 
Q 1925 3584 2291 3584 
Q 2894 3584 3203 3211 
Q 3513 2838 3513 2113 
z
" transform="scale(0.015625)"/>
     </defs>
     <use xlink:href="#DejaVuSans-41"/>
     <use xlink:href="#DejaVuSans-67" transform="translate(68.408203 0)"/>
     <use xlink:href="#DejaVuSans-72" transform="translate(131.884766 0)"/>
     <use xlink:href="#DejaVuSans-69" transform="translate(172.998047 0)"/>
     <use xlink:href="#DejaVuSans-63" transform="translate(200.78125 0)"/>
     <use xlink:href="#DejaVuSans-75" transform="translate(255.761719 0)"/>
     <use xlink:href="#DejaVuSans-6c" transform="translate(319.140625 0)"/>
     <use xlink:href="#DejaVuSans-74" transform="translate(346.923828 0)"/>
     <use xlink:href="#DejaVuSans-75" transform="translate(386.132812 0)"/>
     <use xlink:href="#DejaVuSans-72" transform="translate(449.511719 0)"/>
     <use xlink:href="#DejaVuSans-65" transform="translate(488.375 0)"/>
     <use xlink:href="#DejaVuSans-2c" transform="translate(549.898438 0)"/>
     <use xlink:href="#DejaVuSans-20" transform="translate(581.685547 0)"/>
     <use xlink:href="#DejaVuSans-66" transform="translate(613.472656 0)"/>
     <use xlink:href="#DejaVuSans-6f" transform="translate(648.677734 0)"/>
     <use xlink:href="#DejaVuSans-72" transform="translate(709.859375 0)"/>
     <use xlink:href="#DejaVuSans-65" transform="translate(748.722656 0)"/>
     <use xlink:href="#DejaVuSans-73" transform="translate(810.246094 0)"/>
     <use xlink:href="#DejaVuSans-74" transform="translate(862.345703 0)"/>
     <use xlink:href="#DejaVuSans-72" transform="translate(901.554688 0)"/>
     <use xlink:href="#DejaVuSans-79" transform="translate(942.667969 0)"/>
     <use xlink:href="#DejaVuSans-20" transform="translate(1001.847656 0)"/>
     <use xlink:href="#DejaVuSans-26" transform="translate(1033.634766 0)"/>
     <use xlink:href="#DejaVuSans-20" transform="translate(1111.613281 0)"/>
     <use xlink:href="#DejaVuSans-66" transform="translate(1143.400391 0)"/>
     <use xlink:href="#DejaVuSans-69" transform="translate(1178.605469 0)"/>
     <use xlink:href="#DejaVuSans-73" transform="translate(1206.388672 0)"/>
     <use xlink:href="#DejaVuSans-68" transform="translate(1258.488281 0)"/>
     <use xlink:href="#DejaVuSans-65" transform="translate(1321.867188 0)"/>
     <use xlink:href="#DejaVuSans-72" transform="translate(1383.390625 0)"/>
     <use xlink:href="#DejaVuSans-69" transform="translate(1424.503906 0)"/>
     <use xlink:href="#DejaVuSans-65" transform="translate(1452.287109 0)"/>
     <use xlink:href="#DejaVuSans-73" transform="translate(1513.810547 0)"/>
    </g>
   </g>
   <g id="text_17">
    <!-- IT &amp; software -->
    <g style="fill: #5ba8a0" transform="translate(513.71424 409.154017) scale(0.17 -0.17)">
     <defs>
      <path id="DejaVuSans-49" d="M 628 4666 
L 1259 4666 
L 1259 0 
L 628 0 
L 628 4666 
z
" transform="scale(0.015625)"/>
      <path id="DejaVuSans-54" d="M -19 4666 
L 3928 4666 
L 3928 4134 
L 2272 4134 
L 2272 0 
L 1638 0 
L 1638 4134 
L -19 4134 
L -19 4666 
z
" transform="scale(0.015625)"/>
      <path id="DejaVuSans-77" d="M 269 3500 
L 844 3500 
L 1563 769 
L 2278 3500 
L 2956 3500 
L 3675 769 
L 4391 3500 
L 4966 3500 
L 4050 0 
L 3372 0 
L 2619 2869 
L 1863 0 
L 1184 0 
L 269 3500 
z
" transform="scale(0.015625)"/>
      <path id="DejaVuSans-61" d="M 2194 1759 
Q 1497 1759 1228 1600 
Q 959 1441 959 1056 
Q 959 750 1161 570 
Q 1363 391 1709 391 
Q 2188 391 2477 730 
Q 2766 1069 2766 1631 
L 2766 1759 
L 2194 1759 
z
M 3341 1997 
L 3341 0 
L 2766 0 
L 2766 531 
Q 2569 213 2275 61 
Q 1981 -91 1556 -91 
Q 1019 -91 701 211 
Q 384 513 384 1019 
Q 384 1609 779 1909 
Q 1175 2209 1959 2209 
L 2766 2209 
L 2766 2266 
Q 2766 2663 2505 2880 
Q 2244 3097 1772 3097 
Q 1472 3097 1187 3025 
Q 903 2953 641 2809 
L 641 3341 
Q 956 3463 1253 3523 
Q 1550 3584 1831 3584 
Q 2591 3584 2966 3190 
Q 3341 2797 3341 1997 
z
" transform="scale(0.015625)"/>
     </defs>
     <use xlink:href="#DejaVuSans-49"/>
     <use xlink:href="#DejaVuSans-54" transform="translate(29.492188 0)"/>
     <use xlink:href="#DejaVuSans-20" transform="translate(90.576172 0)"/>
     <use xlink:href="#DejaVuSans-26" transform="translate(122.363281 0)"/>
     <use xlink:href="#DejaVuSans-20" transform="translate(200.341797 0)"/>
     <use xlink:href="#DejaVuSans-73" transform="translate(232.128906 0)"/>
     <use xlink:href="#DejaVuSans-6f" transform="translate(284.228516 0)"/>
     <use xlink:href="#DejaVuSans-66" transform="translate(345.410156 0)"/>
     <use xlink:href="#DejaVuSans-74" transform="translate(378.865234 0)"/>
     <use xlink:href="#DejaVuSans-77" transform="translate(418.074219 0)"/>
     <use xlink:href="#DejaVuSans-61" transform="translate(499.861328 0)"/>
     <use xlink:href="#DejaVuSans-72" transform="translate(561.140625 0)"/>
     <use xlink:href="#DejaVuSans-65" transform="translate(600.003906 0)"/>
    </g>
   </g>
   <g id="text_18">
    <!-- Military &amp; security -->
    <g style="fill: #ff8c00" transform="translate(513.71424 274.296388) scale(0.17 -0.17)">
     <defs>
      <path id="DejaVuSans-4d" d="M 628 4666 
L 1569 4666 
L 2759 1491 
L 3956 4666 
L 4897 4666 
L 4897 0 
L 4281 0 
L 4281 4097 
L 3078 897 
L 2444 897 
L 1241 4097 
L 1241 0 
L 628 0 
L 628 4666 
z
" transform="scale(0.015625)"/>
     </defs>
     <use xlink:href="#DejaVuSans-4d"/>
     <use xlink:href="#DejaVuSans-69" transform="translate(86.279297 0)"/>
     <use xlink:href="#DejaVuSans-6c" transform="translate(114.0625 0)"/>
     <use xlink:href="#DejaVuSans-69" transform="translate(141.845703 0)"/>
     <use xlink:href="#DejaVuSans-74" transform="translate(169.628906 0)"/>
     <use xlink:href="#DejaVuSans-61" transform="translate(208.837891 0)"/>
     <use xlink:href="#DejaVuSans-72" transform="translate(270.117188 0)"/>
     <use xlink:href="#DejaVuSans-79" transform="translate(311.230469 0)"/>
     <use xlink:href="#DejaVuSans-20" transform="translate(370.410156 0)"/>
     <use xlink:href="#DejaVuSans-26" transform="translate(402.197266 0)"/>
     <use xlink:href="#DejaVuSans-20" transform="translate(480.175781 0)"/>
     <use xlink:href="#DejaVuSans-73" transform="translate(511.962891 0)"/>
     <use xlink:href="#DejaVuSans-65" transform="translate(564.0625 0)"/>
     <use xlink:href="#DejaVuSans-63" transform="translate(625.585938 0)"/>
     <use xlink:href="#DejaVuSans-75" transform="translate(680.566406 0)"/>
     <use xlink:href="#DejaVuSans-72" transform="translate(743.945312 0)"/>
     <use xlink:href="#DejaVuSans-69" transform="translate(785.058594 0)"/>
     <use xlink:href="#DejaVuSans-74" transform="translate(812.841797 0)"/>
     <use xlink:href="#DejaVuSans-79" transform="translate(852.050781 0)"/>
    </g>
   </g>
   <g id="text_19">
    <!-- Education -->
    <g style="fill: #4a6fa5" transform="translate(513.71424 443.397651) scale(0.17 -0.17)">
     <defs>
      <path id="DejaVuSans-45" d="M 628 4666 
L 3578 4666 
L 3578 4134 
L 1259 4134 
L 1259 2753 
L 3481 2753 
L 3481 2222 
L 1259 2222 
L 1259 531 
L 3634 531 
L 3634 0 
L 628 0 
L 628 4666 
z
" transform="scale(0.015625)"/>
      <path id="DejaVuSans-64" d="M 2906 2969 
L 2906 4863 
L 3481 4863 
L 3481 0 
L 2906 0 
L 2906 525 
Q 2725 213 2448 61 
Q 2172 -91 1784 -91 
Q 1150 -91 751 415 
Q 353 922 353 1747 
Q 353 2572 751 3078 
Q 1150 3584 1784 3584 
Q 2172 3584 2448 3432 
Q 2725 3281 2906 2969 
z
M 947 1747 
Q 947 1113 1208 752 
Q 1469 391 1925 391 
Q 2381 391 2643 752 
Q 2906 1113 2906 1747 
Q 2906 2381 2643 2742 
Q 2381 3103 1925 3103 
Q 1469 3103 1208 2742 
Q 947 2381 947 1747 
z
" transform="scale(0.015625)"/>
      <path id="DejaVuSans-6e" d="M 3513 2113 
L 3513 0 
L 2938 0 
L 2938 2094 
Q 2938 2591 2744 2837 
Q 2550 3084 2163 3084 
Q 1697 3084 1428 2787 
Q 1159 2491 1159 1978 
L 1159 0 
L 581 0 
L 581 3500 
L 1159 3500 
L 1159 2956 
Q 1366 3272 1645 3428 
Q 1925 3584 2291 3584 
Q 2894 3584 3203 3211 
Q 3513 2838 3513 2113 
z
" transform="scale(0.015625)"/>
     </defs>
     <use xlink:href="#DejaVuSans-45"/>
     <use xlink:href="#DejaVuSans-64" transform="translate(63.183594 0)"/>
     <use xlink:href="#DejaVuSans-75" transform="translate(126.660156 0)"/>
     <use xlink:href="#DejaVuSans-63" transform="translate(190.039062 0)"/>
     <use xlink:href="#DejaVuSans-61" transform="translate(245.019531 0)"/>
     <use xlink:href="#DejaVuSans-74" transform="translate(306.298828 0)"/>
     <use xlink:href="#DejaVuSans-69" transform="translate(345.507812 0)"/>
     <use xlink:href="#DejaVuSans-6f" transform="translate(373.291016 0)"/>
     <use xlink:href="#DejaVuSans-6e" transform="translate(434.472656 0)"/>
    </g>
   </g>
   <g id="text_20">
    <!-- Healthcare -->
    <g style="fill: #8b4789" transform="translate(513.71424 391.477511) scale(0.17 -0.17)">
     <defs>
      <path id="DejaVuSans-48" d="M 628 4666 
L 1259 4666 
L 1259 2753 
L 3553 2753 
L 3553 4666 
L 4184 4666 
L 4184 0 
L 3553 0 
L 3553 2222 
L 1259 2222 
L 1259 0 
L 628 0 
L 628 4666 
z
" transform="scale(0.015625)"/>
     </defs>
     <use xlink:href="#DejaVuSans-48"/>
     <use xlink:href="#DejaVuSans-65" transform="translate(75.195312 0)"/>
     <use xlink:href="#DejaVuSans-61" transform="translate(136.71875 0)"/>
     <use xlink:href="#DejaVuSans-6c" transform="translate(197.998047 0)"/>
     <use xlink:href="#DejaVuSans-74" transform="translate(225.78125 0)"/>
     <use xlink:href="#DejaVuSans-68" transform="translate(264.990234 0)"/>
     <use xlink:href="#DejaVuSans-63" transform="translate(328.369141 0)"/>
     <use xlink:href="#DejaVuSans-61" transform="translate(383.349609 0)"/>
     <use xlink:href="#DejaVuSans-72" transform="translate(444.628906 0)"/>
     <use xlink:href="#DejaVuSans-65" transform="translate(483.492188 0)"/>
    </g>
   </g>
   <g id="text_21">
    <!-- Source: Migrationsverkets statistics from 2015 to 2025, indexed. -->
    <g style="fill: #808080; opacity: 0.7" transform="translate(24.158705 43.1317) scale(0.12 -0.12)">
     <defs>
      <path id="DejaVuSans-53" d="M 3425 4513 
L 3425 3897 
Q 3066 4069 2747 4153 
Q 2428 4238 2131 4238 
Q 1616 4238 1336 4038 
Q 1056 3838 1056 3469 
Q 1056 3159 1242 3001 
Q 1428 2844 1947 2747 
L 2328 2669 
Q 3034 2534 3370 2195 
Q 3706 1856 3706 1288 
Q 3706 609 3251 259 
Q 2797 -91 1919 -91 
Q 1588 -91 1214 -16 
Q 841 59 441 206 
L 441 856 
Q 825 641 1194 531 
Q 1563 422 1919 422 
Q 2459 422 2753 634 
Q 3047 847 3047 1241 
Q 3047 1584 2836 1778 
Q 2625 1972 2144 2069 
L 1759 2144 
Q 1053 2284 737 2584 
Q 422 2884 422 3419 
Q 422 4038 858 4394 
Q 1294 4750 2059 4750 
Q 2388 4750 2728 4690 
Q 3069 4631 3425 4513 
z
" transform="scale(0.015625)"/>
      <path id="DejaVuSans-3a" d="M 750 794 
L 1409 794 
L 1409 0 
L 750 0 
L 750 794 
z
M 750 3309 
L 1409 3309 
L 1409 2516 
L 750 2516 
L 750 3309 
z
" transform="scale(0.015625)"/>
      <path id="DejaVuSans-76" d="M 191 3500 
L 800 3500 
L 1894 563 
L 2988 3500 
L 3597 3500 
L 2284 0 
L 1503 0 
L 191 3500 
z
" transform="scale(0.015625)"/>
      <path id="DejaVuSans-6b" d="M 581 4863 
L 1159 4863 
L 1159 1991 
L 2875 3500 
L 3609 3500 
L 1753 1863 
L 3688 0 
L 2938 0 
L 1159 1709 
L 1159 0 
L 581 0 
L 581 4863 
z
" transform="scale(0.015625)"/>
      <path id="DejaVuSans-6d" d="M 3328 2828 
Q 3544 3216 3844 3400 
Q 4144 3584 4550 3584 
Q 5097 3584 5394 3201 
Q 5691 2819 5691 2113 
L 5691 0 
L 5113 0 
L 5113 2094 
Q 5113 2597 4934 2840 
Q 4756 3084 4391 3084 
Q 3944 3084 3684 2787 
Q 3425 2491 3425 1978 
L 3425 0 
L 2847 0 
L 2847 2094 
Q 2847 2600 2669 2842 
Q 2491 3084 2119 3084 
Q 1678 3084 1418 2786 
Q 1159 2488 1159 1978 
L 1159 0 
L 581 0 
L 581 3500 
L 1159 3500 
L 1159 2956 
Q 1356 3278 1631 3431 
Q 1906 3584 2284 3584 
Q 2666 3584 2933 3390 
Q 3200 3197 3328 2828 
z
" transform="scale(0.015625)"/>
      <path id="DejaVuSans-78" d="M 3513 3500 
L 2247 1797 
L 3578 0 
L 2900 0 
L 1881 1375 
L 863 0 
L 184 0 
L 1544 1831 
L 300 3500 
L 978 3500 
L 1906 2253 
L 2834 3500 
L 3513 3500 
z
" transform="scale(0.015625)"/>
      <path id="DejaVuSans-2e" d="M 684 794 
L 1344 794 
L 1344 0 
L 684 0 
L 684 794 
z
" transform="scale(0.015625)"/>
     </defs>
     <use xlink:href="#DejaVuSans-53"/>
     <use xlink:href="#DejaVuSans-6f" transform="translate(63.476562 0)"/>
     <use xlink:href="#DejaVuSans-75" transform="translate(124.658203 0)"/>
     <use xlink:href="#DejaVuSans-72" transform="translate(188.037109 0)"/>
     <use xlink:href="#DejaVuSans-63" transform="translate(226.900391 0)"/>
     <use xlink:href="#DejaVuSans-65" transform="translate(281.880859 0)"/>
     <use xlink:href="#DejaVuSans-3a" transform="translate(343.404297 0)"/>
     <use xlink:href="#DejaVuSans-20" transform="translate(377.095703 0)"/>
     <use xlink:href="#DejaVuSans-4d" transform="translate(408.882812 0)"/>
     <use xlink:href="#DejaVuSans-69" transform="translate(495.162109 0)"/>
     <use xlink:href="#DejaVuSans-67" transform="translate(522.945312 0)"/>
     <use xlink:href="#DejaVuSans-72" transform="translate(586.421875 0)"/>
     <use xlink:href="#DejaVuSans-61" transform="translate(627.535156 0)"/>
     <use xlink:href="#DejaVuSans-74" transform="translate(688.814453 0)"/>
     <use xlink:href="#DejaVuSans-69" transform="translate(728.023438 0)"/>
     <use xlink:href="#DejaVuSans-6f" transform="translate(755.806641 0)"/>
     <use xlink:href="#DejaVuSans-6e" transform="translate(816.988281 0)"/>
     <use xlink:href="#DejaVuSans-73" transform="translate(880.367188 0)"/>
     <use xlink:href="#DejaVuSans-76" transform="translate(932.466797 0)"/>
     <use xlink:href="#DejaVuSans-65" transform="translate(991.646484 0)"/>
     <use xlink:href="#DejaVuSans-72" transform="translate(1053.169922 0)"/>
     <use xlink:href="#DejaVuSans-6b" transform="translate(1094.283203 0)"/>
     <use xlink:href="#DejaVuSans-65" transform="translate(1148.568359 0)"/>
     <use xlink:href="#DejaVuSans-74" transform="translate(1210.091797 0)"/>
     <use xlink:href="#DejaVuSans-73" transform="translate(1249.300781 0)"/>
     <use xlink:href="#DejaVuSans-20" transform="translate(1301.400391 0)"/>
     <use xlink:href="#DejaVuSans-73" transform="translate(1333.1875 0)"/>
     <use xlink:href="#DejaVuSans-74" transform="translate(1385.287109 0)"/>
     <use xlink:href="#DejaVuSans-61" transform="translate(1424.496094 0)"/>
     <use xlink:href="#DejaVuSans-74" transform="translate(1485.775391 0)"/>
     <use xlink:href="#DejaVuSans-69" transform="translate(1524.984375 0)"/>
     <use xlink:href="#DejaVuSans-73" transform="translate(1552.767578 0)"/>
     <use xlink:href="#DejaVuSans-74" transform="translate(1604.867188 0)"/>
     <use xlink:href="#DejaVuSans-69" transform="translate(1644.076172 0)"/>
     <use xlink:href="#DejaVuSans-63" transform="translate(1671.859375 0)"/>
     <use xlink:href="#DejaVuSans-73" transform="translate(1726.839844 0)"/>
     <use xlink:href="#DejaVuSans-20" transform="translate(1778.939453 0)"/>
     <use xlink:href="#DejaVuSans-66" transform="translate(1810.726562 0)"/>
     <use xlink:href="#DejaVuSans-72" transform="translate(1845.931641 0)"/>
     <use xlink:href="#DejaVuSans-6f" transform="translate(1884.794922 0)"/>
     <use xlink:href="#DejaVuSans-6d" transform="translate(1945.976562 0)"/>
     <use xlink:href="#DejaVuSans-20" transform="translate(2043.388672 0)"/>
     <use xlink:href="#DejaVuSans-32" transform="translate(2075.175781 0)"/>
     <use xlink:href="#DejaVuSans-30" transform="translate(2138.798828 0)"/>
     <use xlink:href="#DejaVuSans-31" transform="translate(2202.421875 0)"/>
     <use xlink:href="#DejaVuSans-35" transform="translate(2266.044922 0)"/>
     <use xlink:href="#DejaVuSans-20" transform="translate(2329.667969 0)"/>
     <use xlink:href="#DejaVuSans-74" transform="translate(2361.455078 0)"/>
     <use xlink:href="#DejaVuSans-6f" transform="translate(2400.664062 0)"/>
     <use xlink:href="#DejaVuSans-20" transform="translate(2461.845703 0)"/>
     <use xlink:href="#DejaVuSans-32" transform="translate(2493.632812 0)"/>
     <use xlink:href="#DejaVuSans-30" transform="translate(2557.255859 0)"/>
     <use xlink:href="#DejaVuSans-32" transform="translate(2620.878906 0)"/>
     <use xlink:href="#DejaVuSans-35" transform="translate(2684.501953 0)"/>
     <use xlink:href="#DejaVuSans-2c" transform="translate(2748.125 0)"/>
     <use xlink:href="#DejaVuSans-20" transform="translate(2779.912109 0)"/>
     <use xlink:href="#DejaVuSans-69" transform="translate(2811.699219 0)"/>
     <use xlink:href="#DejaVuSans-6e" transform="translate(2839.482422 0)"/>
     <use xlink:href="#DejaVuSans-64" transform="translate(2902.861328 0)"/>
     <use xlink:href="#DejaVuSans-65" transform="translate(2966.337891 0)"/>
     <use xlink:href="#DejaVuSans-78" transform="translate(3026.111328 0)"/>
     <use xlink:href="#DejaVuSans-65" transform="translate(3082.166016 0)"/>
     <use xlink:href="#DejaVuSans-64" transform="translate(3143.689453 0)"/>
     <use xlink:href="#DejaVuSans-2e" transform="translate(3207.166016 0)"/>
    </g>
    <!-- The Local applied its own aggregation to the office's categories  -->
    <g style="fill: #808080; opacity: 0.7" transform="translate(24.158705 56.569075) scale(0.12 -0.12)">
     <defs>
      <path id="DejaVuSans-4c" d="M 628 4666 
L 1259 4666 
L 1259 531 
L 3531 531 
L 3531 0 
L 628 0 
L 628 4666 
z
" transform="scale(0.015625)"/>
      <path id="DejaVuSans-70" d="M 1159 525 
L 1159 -1331 
L 581 -1331 
L 581 3500 
L 1159 3500 
L 1159 2969 
Q 1341 3281 1617 3432 
Q 1894 3584 2278 3584 
Q 2916 3584 3314 3078 
Q 3713 2572 3713 1747 
Q 3713 922 3314 415 
Q 2916 -91 2278 -91 
Q 1894 -91 1617 61 
Q 1341 213 1159 525 
z
M 3116 1747 
Q 3116 2381 2855 2742 
Q 2594 3103 2138 3103 
Q 1681 3103 1420 2742 
Q 1159 2381 1159 1747 
Q 1159 1113 1420 752 
Q 1681 391 2138 391 
Q 2594 391 2855 752 
Q 3116 1113 3116 1747 
z
" transform="scale(0.015625)"/>
      <path id="DejaVuSans-27" d="M 1147 4666 
L 1147 2931 
L 616 2931 
L 616 4666 
L 1147 4666 
z
" transform="scale(0.015625)"/>
     </defs>
     <use xlink:href="#DejaVuSans-54"/>
     <use xlink:href="#DejaVuSans-68" transform="translate(61.083984 0)"/>
     <use xlink:href="#DejaVuSans-65" transform="translate(124.462891 0)"/>
     <use xlink:href="#DejaVuSans-20" transform="translate(185.986328 0)"/>
     <use xlink:href="#DejaVuSans-4c" transform="translate(217.773438 0)"/>
     <use xlink:href="#DejaVuSans-6f" transform="translate(271.736328 0)"/>
     <use xlink:href="#DejaVuSans-63" transform="translate(332.917969 0)"/>
     <use xlink:href="#DejaVuSans-61" transform="translate(387.898438 0)"/>
     <use xlink:href="#DejaVuSans-6c" transform="translate(449.177734 0)"/>
     <use xlink:href="#DejaVuSans-20" transform="translate(476.960938 0)"/>
     <use xlink:href="#DejaVuSans-61" transform="translate(508.748047 0)"/>
     <use xlink:href="#DejaVuSans-70" transform="translate(570.027344 0)"/>
     <use xlink:href="#DejaVuSans-70" transform="translate(633.503906 0)"/>
     <use xlink:href="#DejaVuSans-6c" transform="translate(696.980469 0)"/>
     <use xlink:href="#DejaVuSans-69" transform="translate(724.763672 0)"/>
     <use xlink:href="#DejaVuSans-65" transform="translate(752.546875 0)"/>
     <use xlink:href="#DejaVuSans-64" transform="translate(814.070312 0)"/>
     <use xlink:href="#DejaVuSans-20" transform="translate(877.546875 0)"/>
     <use xlink:href="#DejaVuSans-69" transform="translate(909.333984 0)"/>
     <use xlink:href="#DejaVuSans-74" transform="translate(937.117188 0)"/>
     <use xlink:href="#DejaVuSans-73" transform="translate(976.326172 0)"/>
     <use xlink:href="#DejaVuSans-20" transform="translate(1028.425781 0)"/>
     <use xlink:href="#DejaVuSans-6f" transform="translate(1060.212891 0)"/>
     <use xlink:href="#DejaVuSans-77" transform="translate(1121.394531 0)"/>
     <use xlink:href="#DejaVuSans-6e" transform="translate(1203.181641 0)"/>
     <use xlink:href="#DejaVuSans-20" transform="translate(1266.560547 0)"/>
     <use xlink:href="#DejaVuSans-61" transform="translate(1298.347656 0)"/>
     <use xlink:href="#DejaVuSans-67" transform="translate(1359.626953 0)"/>
     <use xlink:href="#DejaVuSans-67" transform="translate(1423.103516 0)"/>
     <use xlink:href="#DejaVuSans-72" transform="translate(1486.580078 0)"/>
     <use xlink:href="#DejaVuSans-65" transform="translate(1525.443359 0)"/>
     <use xlink:href="#DejaVuSans-67" transform="translate(1586.966797 0)"/>
     <use xlink:href="#DejaVuSans-61" transform="translate(1650.443359 0)"/>
     <use xlink:href="#DejaVuSans-74" transform="translate(1711.722656 0)"/>
     <use xlink:href="#DejaVuSans-69" transform="translate(1750.931641 0)"/>
     <use xlink:href="#DejaVuSans-6f" transform="translate(1778.714844 0)"/>
     <use xlink:href="#DejaVuSans-6e" transform="translate(1839.896484 0)"/>
     <use xlink:href="#DejaVuSans-20" transform="translate(1903.275391 0)"/>
     <use xlink:href="#DejaVuSans-74" transform="translate(1935.0625 0)"/>
     <use xlink:href="#DejaVuSans-6f" transform="translate(1974.271484 0)"/>
     <use xlink:href="#DejaVuSans-20" transform="translate(2035.453125 0)"/>
     <use xlink:href="#DejaVuSans-74" transform="translate(2067.240234 0)"/>
     <use xlink:href="#DejaVuSans-68" transform="translate(2106.449219 0)"/>
     <use xlink:href="#DejaVuSans-65" transform="translate(2169.828125 0)"/>
     <use xlink:href="#DejaVuSans-20" transform="translate(2231.351562 0)"/>
     <use xlink:href="#DejaVuSans-6f" transform="translate(2263.138672 0)"/>
     <use xlink:href="#DejaVuSans-66" transform="translate(2324.320312 0)"/>
     <use xlink:href="#DejaVuSans-66" transform="translate(2359.525391 0)"/>
     <use xlink:href="#DejaVuSans-69" transform="translate(2394.730469 0)"/>
     <use xlink:href="#DejaVuSans-63" transform="translate(2422.513672 0)"/>
     <use xlink:href="#DejaVuSans-65" transform="translate(2477.494141 0)"/>
     <use xlink:href="#DejaVuSans-27" transform="translate(2539.017578 0)"/>
     <use xlink:href="#DejaVuSans-73" transform="translate(2566.507812 0)"/>
     <use xlink:href="#DejaVuSans-20" transform="translate(2618.607422 0)"/>
     <use xlink:href="#DejaVuSans-63" transform="translate(2650.394531 0)"/>
     <use xlink:href="#DejaVuSans-61" transform="translate(2705.375 0)"/>
     <use xlink:href="#DejaVuSans-74" transform="translate(2766.654297 0)"/>
     <use xlink:href="#DejaVuSans-65" transform="translate(2805.863281 0)"/>
     <use xlink:href="#DejaVuSans-67" transform="translate(2867.386719 0)"/>
     <use xlink:href="#DejaVuSans-6f" transform="translate(2930.863281 0)"/>
     <use xlink:href="#DejaVuSans-72" transform="translate(2992.044922 0)"/>
     <use xlink:href="#DejaVuSans-69" transform="translate(3033.158203 0)"/>
     <use xlink:href="#DejaVuSans-65" transform="translate(3060.941406 0)"/>
     <use xlink:href="#DejaVuSans-73" transform="translate(3122.464844 0)"/>
     <use xlink:href="#DejaVuSans-20" transform="translate(3174.564453 0)"/>
    </g>
    <!-- to improve readability, see the methodological note. -->
    <g style="fill: #808080; opacity: 0.7" transform="translate(24.158705 70.00645) scale(0.12 -0.12)">
     <defs>
      <path id="DejaVuSans-62" d="M 3116 1747 
Q 3116 2381 2855 2742 
Q 2594 3103 2138 3103 
Q 1681 3103 1420 2742 
Q 1159 2381 1159 1747 
Q 1159 1113 1420 752 
Q 1681 391 2138 391 
Q 2594 391 2855 752 
Q 3116 1113 3116 1747 
z
M 1159 2969 
Q 1341 3281 1617 3432 
Q 1894 3584 2278 3584 
Q 2916 3584 3314 3078 
Q 3713 2572 3713 1747 
Q 3713 922 3314 415 
Q 2916 -91 2278 -91 
Q 1894 -91 1617 61 
Q 1341 213 1159 525 
L 1159 0 
L 581 0 
L 581 4863 
L 1159 4863 
L 1159 2969 
z
" transform="scale(0.015625)"/>
     </defs>
     <use xlink:href="#DejaVuSans-74"/>
     <use xlink:href="#DejaVuSans-6f" transform="translate(39.208984 0)"/>
     <use xlink:href="#DejaVuSans-20" transform="translate(100.390625 0)"/>
     <use xlink:href="#DejaVuSans-69" transform="translate(132.177734 0)"/>
     <use xlink:href="#DejaVuSans-6d" transform="translate(159.960938 0)"/>
     <use xlink:href="#DejaVuSans-70" transform="translate(257.373047 0)"/>
     <use xlink:href="#DejaVuSans-72" transform="translate(320.849609 0)"/>
     <use xlink:href="#DejaVuSans-6f" transform="translate(359.712891 0)"/>
     <use xlink:href="#DejaVuSans-76" transform="translate(420.894531 0)"/>
     <use xlink:href="#DejaVuSans-65" transform="translate(480.074219 0)"/>
     <use xlink:href="#DejaVuSans-20" transform="translate(541.597656 0)"/>
     <use xlink:href="#DejaVuSans-72" transform="translate(573.384766 0)"/>
     <use xlink:href="#DejaVuSans-65" transform="translate(612.248047 0)"/>
     <use xlink:href="#DejaVuSans-61" transform="translate(673.771484 0)"/>
     <use xlink:href="#DejaVuSans-64" transform="translate(735.050781 0)"/>
     <use xlink:href="#DejaVuSans-61" transform="translate(798.527344 0)"/>
     <use xlink:href="#DejaVuSans-62" transform="translate(859.806641 0)"/>
     <use xlink:href="#DejaVuSans-69" transform="translate(923.283203 0)"/>
     <use xlink:href="#DejaVuSans-6c" transform="translate(951.066406 0)"/>
     <use xlink:href="#DejaVuSans-69" transform="translate(978.849609 0)"/>
     <use xlink:href="#DejaVuSans-74" transform="translate(1006.632812 0)"/>
     <use xlink:href="#DejaVuSans-79" transform="translate(1045.841797 0)"/>
     <use xlink:href="#DejaVuSans-2c" transform="translate(1105.021484 0)"/>
     <use xlink:href="#DejaVuSans-20" transform="translate(1136.808594 0)"/>
     <use xlink:href="#DejaVuSans-73" transform="translate(1168.595703 0)"/>
     <use xlink:href="#DejaVuSans-65" transform="translate(1220.695312 0)"/>
     <use xlink:href="#DejaVuSans-65" transform="translate(1282.21875 0)"/>
     <use xlink:href="#DejaVuSans-20" transform="translate(1343.742188 0)"/>
     <use xlink:href="#DejaVuSans-74" transform="translate(1375.529297 0)"/>
     <use xlink:href="#DejaVuSans-68" transform="translate(1414.738281 0)"/>
     <use xlink:href="#DejaVuSans-65" transform="translate(1478.117188 0)"/>
     <use xlink:href="#DejaVuSans-20" transform="translate(1539.640625 0)"/>
     <use xlink:href="#DejaVuSans-6d" transform="translate(1571.427734 0)"/>
     <use xlink:href="#DejaVuSans-65" transform="translate(1668.839844 0)"/>
     <use xlink:href="#DejaVuSans-74" transform="translate(1730.363281 0)"/>
     <use xlink:href="#DejaVuSans-68" transform="translate(1769.572266 0)"/>
     <use xlink:href="#DejaVuSans-6f" transform="translate(1832.951172 0)"/>
     <use xlink:href="#DejaVuSans-64" transform="translate(1894.132812 0)"/>
     <use xlink:href="#DejaVuSans-6f" transform="translate(1957.609375 0)"/>
     <use xlink:href="#DejaVuSans-6c" transform="translate(2018.791016 0)"/>
     <use xlink:href="#DejaVuSans-6f" transform="translate(2046.574219 0)"/>
     <use xlink:href="#DejaVuSans-67" transform="translate(2107.755859 0)"/>
     <use xlink:href="#DejaVuSans-69" transform="translate(2171.232422 0)"/>
     <use xlink:href="#DejaVuSans-63" transform="translate(2199.015625 0)"/>
     <use xlink:href="#DejaVuSans-61" transform="translate(2253.996094 0)"/>
     <use xlink:href="#DejaVuSans-6c" transform="translate(2315.275391 0)"/>
     <use xlink:href="#DejaVuSans-20" transform="translate(2343.058594 0)"/>
     <use xlink:href="#DejaVuSans-6e" transform="translate(2374.845703 0)"/>
     <use xlink:href="#DejaVuSans-6f" transform="translate(2438.224609 0)"/>
     <use xlink:href="#DejaVuSans-74" transform="translate(2499.40625 0)"/>
     <use xlink:href="#DejaVuSans-65" transform="translate(2538.615234 0)"/>
     <use xlink:href="#DejaVuSans-2e" transform="translate(2600.138672 0)"/>
    </g>
   </g>
   <g id="text_22">
    <!-- Granted first-time work permits by type of job -->
    <g transform="translate(24.158705 22.396875) scale(0.2 -0.2)">
     <defs>
      <path id="DejaVuSans-47" d="M 3809 666 
L 3809 1919 
L 2778 1919 
L 2778 2438 
L 4434 2438 
L 4434 434 
Q 4069 175 3628 42 
Q 3188 -91 2688 -91 
Q 1594 -91 976 548 
Q 359 1188 359 2328 
Q 359 3472 976 4111 
Q 1594 4750 2688 4750 
Q 3144 4750 3555 4637 
Q 3966 4525 4313 4306 
L 4313 3634 
Q 3963 3931 3569 4081 
Q 3175 4231 2741 4231 
Q 1884 4231 1454 3753 
Q 1025 3275 1025 2328 
Q 1025 1384 1454 906 
Q 1884 428 2741 428 
Q 3075 428 3337 486 
Q 3600 544 3809 666 
z
" transform="scale(0.015625)"/>
      <path id="DejaVuSans-2d" d="M 313 2009 
L 1997 2009 
L 1997 1497 
L 313 1497 
L 313 2009 
z
" transform="scale(0.015625)"/>
      <path id="DejaVuSans-6a" d="M 603 3500 
L 1178 3500 
L 1178 -63 
Q 1178 -731 923 -1031 
Q 669 -1331 103 -1331 
L -116 -1331 
L -116 -844 
L 38 -844 
Q 366 -844 484 -692 
Q 603 -541 603 -63 
L 603 3500 
z
M 603 4863 
L 1178 4863 
L 1178 4134 
L 603 4134 
L 603 4863 
z
" transform="scale(0.015625)"/>
     </defs>
     <use xlink:href="#DejaVuSans-47"/>
     <use xlink:href="#DejaVuSans-72" transform="translate(77.490234 0)"/>
     <use xlink:href="#DejaVuSans-61" transform="translate(118.603516 0)"/>
     <use xlink:href="#DejaVuSans-6e" transform="translate(179.882812 0)"/>
     <use xlink:href="#DejaVuSans-74" transform="translate(243.261719 0)"/>
     <use xlink:href="#DejaVuSans-65" transform="translate(282.470703 0)"/>
     <use xlink:href="#DejaVuSans-64" transform="translate(343.994141 0)"/>
     <use xlink:href="#DejaVuSans-20" transform="translate(407.470703 0)"/>
     <use xlink:href="#DejaVuSans-66" transform="translate(439.257812 0)"/>
     <use xlink:href="#DejaVuSans-69" transform="translate(474.462891 0)"/>
     <use xlink:href="#DejaVuSans-72" transform="translate(502.246094 0)"/>
     <use xlink:href="#DejaVuSans-73" transform="translate(543.359375 0)"/>
     <use xlink:href="#DejaVuSans-74" transform="translate(595.458984 0)"/>
     <use xlink:href="#DejaVuSans-2d" transform="translate(634.667969 0)"/>
     <use xlink:href="#DejaVuSans-74" transform="translate(670.751953 0)"/>
     <use xlink:href="#DejaVuSans-69" transform="translate(709.960938 0)"/>
     <use xlink:href="#DejaVuSans-6d" transform="translate(737.744141 0)"/>
     <use xlink:href="#DejaVuSans-65" transform="translate(835.15625 0)"/>
     <use xlink:href="#DejaVuSans-20" transform="translate(896.679688 0)"/>
     <use xlink:href="#DejaVuSans-77" transform="translate(928.466797 0)"/>
     <use xlink:href="#DejaVuSans-6f" transform="translate(1010.253906 0)"/>
     <use xlink:href="#DejaVuSans-72" transform="translate(1071.435547 0)"/>
     <use xlink:href="#DejaVuSans-6b" transform="translate(1112.548828 0)"/>
     <use xlink:href="#DejaVuSans-20" transform="translate(1170.458984 0)"/>
     <use xlink:href="#DejaVuSans-70" transform="translate(1202.246094 0)"/>
     <use xlink:href="#DejaVuSans-65" transform="translate(1265.722656 0)"/>
     <use xlink:href="#DejaVuSans-72" transform="translate(1327.246094 0)"/>
     <use xlink:href="#DejaVuSans-6d" transform="translate(1366.609375 0)"/>
     <use xlink:href="#DejaVuSans-69" transform="translate(1464.021484 0)"/>
     <use xlink:href="#DejaVuSans-74" transform="translate(1491.804688 0)"/>
     <use xlink:href="#DejaVuSans-73" transform="translate(1531.013672 0)"/>
     <use xlink:href="#DejaVuSans-20" transform="translate(1583.113281 0)"/>
     <use xlink:href="#DejaVuSans-62" transform="translate(1614.900391 0)"/>
     <use xlink:href="#DejaVuSans-79" transform="translate(1678.376953 0)"/>
     <use xlink:href="#DejaVuSans-20" transform="translate(1737.556641 0)"/>
     <use xlink:href="#DejaVuSans-74" transform="translate(1769.34375 0)"/>
     <use xlink:href="#DejaVuSans-79" transform="translate(1808.552734 0)"/>
     <use xlink:href="#DejaVuSans-70" transform="translate(1867.732422 0)"/>
     <use xlink:href="#DejaVuSans-65" transform="translate(1931.208984 0)"/>
     <use xlink:href="#DejaVuSans-20" transform="translate(1992.732422 0)"/>
     <use xlink:href="#DejaVuSans-6f" transform="translate(2024.519531 0)"/>
     <use xlink:href="#DejaVuSans-66" transform="translate(2085.701172 0)"/>
     <use xlink:href="#DejaVuSans-20" transform="translate(2120.90625 0)"/>
     <use xlink:href="#DejaVuSans-6a" transform="translate(2152.693359 0)"/>
     <use xlink:href="#DejaVuSans-6f" transform="translate(2180.476562 0)"/>
     <use xlink:href="#DejaVuSans-62" transform="translate(2241.658203 0)"/>
    </g>
   </g>
  </g>
 </g>
 <defs>
  <clipPath id="p0fc91d267e">
   <rect x="81.880785" y="64.396875" width="444.016" height="405.26"/>
  </clipPath>
 </defs>
</svg>
